<svg width="23" height="22" viewBox="0 0 23 22" fill="none" xmlns="http://www.w3.org/2000/svg">
<path d="M3.30751 11.1012C3.53626 10.5312 3.45751 9.8787 3.09751 9.37995C2.55376 8.6262 2.25001 7.7412 2.25001 6.79995C2.25001 4.29495 4.51876 1.99995 7.65001 1.99995C10.7813 1.99995 13.05 4.29495 13.05 6.79995C13.05 9.30495 10.7813 11.6 7.65001 11.6C7.05376 11.6 6.48376 11.5137 5.95126 11.3562C5.56501 11.24 5.14876 11.2625 4.77376 11.4125L2.88376 12.17L3.31126 11.1012H3.30751ZM0.450012 6.79995C0.450012 8.14245 0.885012 9.3912 1.63876 10.43L0.521262 13.22C0.472512 13.34 0.450012 13.4675 0.450012 13.595C0.450012 14.15 0.900012 14.6 1.45501 14.6C1.58251 14.6 1.71001 14.5737 1.83001 14.5287L5.44126 13.085C6.13876 13.2912 6.88126 13.4 7.65001 13.4C11.625 13.4 14.85 10.445 14.85 6.79995C14.85 3.15495 11.625 0.199951 7.65001 0.199951C3.67501 0.199951 0.450012 3.15495 0.450012 6.79995ZM14.85 20.6C15.6225 20.6 16.3613 20.4875 17.0588 20.285L20.67 21.7287C20.79 21.7775 20.9175 21.8 21.045 21.8C21.6 21.8 22.05 21.35 22.05 20.795C22.05 20.6675 22.0238 20.54 21.9788 20.42L20.865 17.63C21.615 16.5875 22.0538 15.3387 22.0538 14C22.0538 10.91 19.74 8.3187 16.6163 7.5987C16.5563 8.20995 16.425 8.79495 16.2375 9.35745C18.6338 9.91245 20.2575 11.8812 20.2575 14.0037C20.2575 14.945 19.9538 15.83 19.41 16.5837C19.05 17.0825 18.9713 17.7312 19.2 18.305L19.6275 19.3737L17.7375 18.6162C17.3625 18.4662 16.9463 18.4475 16.56 18.56C16.0275 18.7175 15.4575 18.8037 14.8613 18.8037C12.1538 18.8037 10.095 17.09 9.58501 15.0087C9.00001 15.1287 8.39626 15.1962 7.78126 15.2037C8.39626 18.275 11.3325 20.6037 14.8613 20.6037L14.85 20.6Z" fill="#61758A"/>
</svg>
