<svg width="13" height="13" viewBox="0 0 13 13" fill="none" xmlns="http://www.w3.org/2000/svg">
<path d="M11.6 6.5001C11.6 9.3726 9.2725 11.7001 6.4 11.7001C3.5275 11.7001 1.2 9.3726 1.2 6.5001C1.2 3.6276 3.5275 1.3001 6.4 1.3001C9.2725 1.3001 11.6 3.6276 11.6 6.5001ZM0 6.5001C0 10.0351 2.865 12.9001 6.4 12.9001C9.935 12.9001 12.8 10.0351 12.8 6.5001C12.8 2.9651 9.935 0.100098 6.4 0.100098C2.865 0.100098 0 2.9651 0 6.5001ZM5.8 3.1001V6.5001C5.8 6.7001 5.9 6.8876 6.0675 7.0001L8.4675 8.6001C8.7425 8.7851 9.115 8.7101 9.3 8.4326C9.485 8.1551 9.41 7.7851 9.1325 7.6001L7 6.1801V3.1001C7 2.7676 6.7325 2.5001 6.4 2.5001C6.0675 2.5001 5.8 2.7676 5.8 3.1001Z" fill="#667582"/>
</svg>
