<svg width="14" height="17" viewBox="0 0 14 17" fill="none" xmlns="http://www.w3.org/2000/svg">
<path d="M4.27187 1.18438C4.40937 0.775 4.79063 0.5 5.22188 0.5H8.78125C9.2125 0.5 9.59375 0.775 9.73125 1.18438L10 2H13C13.5531 2 14 2.44687 14 3C14 3.55312 13.5531 4 13 4H1C0.446875 4 0 3.55312 0 3C0 2.44687 0.446875 2 1 2H4L4.27187 1.18438ZM1 5.5H13V15C13 16.1031 12.1031 17 11 17H3C1.89688 17 1 16.1031 1 15V5.5ZM3.75 7.5C3.33437 7.5 3 7.83437 3 8.25V14.25C3 14.6656 3.33437 15 3.75 15C4.16563 15 4.5 14.6656 4.5 14.25V8.25C4.5 7.83437 4.16563 7.5 3.75 7.5ZM7 7.5C6.58437 7.5 6.25 7.83437 6.25 8.25V14.25C6.25 14.6656 6.58437 15 7 15C7.41563 15 7.75 14.6656 7.75 14.25V8.25C7.75 7.83437 7.41563 7.5 7 7.5ZM10.25 7.5C9.83438 7.5 9.5 7.83437 9.5 8.25V14.25C9.5 14.6656 9.83438 15 10.25 15C10.6656 15 11 14.6656 11 14.25V8.25C11 7.83437 10.6656 7.5 10.25 7.5Z" fill="#121417"/>
</svg>
