<svg width="16" height="17" viewBox="0 0 16 17" fill="none" xmlns="http://www.w3.org/2000/svg">
<path d="M1.13746 12.0377C1.26559 11.5814 1.50621 11.1658 1.84371 10.8283L7.50621 5.16582L8.56559 4.10645C9.08434 4.6252 10.1687 5.70957 11.8156 7.35645L12.875 8.41582L11.8156 9.4752L6.15309 15.1377C5.81871 15.4721 5.39996 15.7158 4.94371 15.8439L0.949965 16.9564C0.69059 17.0283 0.409339 16.9564 0.218714 16.7627C0.0280894 16.5689 -0.0437855 16.2908 0.0280895 16.0314L1.13746 12.0377ZM2.87496 11.9221C2.73746 12.0689 2.63746 12.2471 2.58434 12.4408L1.83121 15.1564L4.54684 14.4033C4.74684 14.3471 4.92809 14.2439 5.07809 14.1002L2.87184 11.9221H2.87496ZM13.9375 7.35645C13.4187 6.8377 12.3343 5.75332 10.6875 4.10645L9.62496 3.04707C10.4531 2.21895 10.9187 1.75332 11.0281 1.64395C11.45 1.21895 12.025 0.981445 12.625 0.981445C13.225 0.981445 13.8 1.21895 14.2218 1.64395L15.3375 2.75957C15.7625 3.18457 16 3.75957 16 4.35645C16 4.95332 15.7625 5.53145 15.3375 5.95332C15.2281 6.0627 14.7625 6.52832 13.9343 7.35645H13.9375Z" fill="#121417"/>
</svg>
