<svg width="20" height="20" viewBox="0 0 20 20" fill="none" xmlns="http://www.w3.org/2000/svg">
<path d="M2.5 1.42857C2.5 0.638393 1.94141 0 1.25 0C0.558594 0 0 0.638393 0 1.42857V16.4286C0 18.4018 1.39844 20 3.125 20H18.75C19.4414 20 20 19.3616 20 18.5714C20 17.7812 19.4414 17.1429 18.75 17.1429H3.125C2.78125 17.1429 2.5 16.8214 2.5 16.4286V1.42857ZM18.3828 5.29464C18.8711 4.73661 18.8711 3.83036 18.3828 3.27232C17.8945 2.71429 17.1016 2.71429 16.6133 3.27232L12.5 7.97768L10.2578 5.41518C9.76953 4.85714 8.97656 4.85714 8.48828 5.41518L4.11328 10.4152C3.625 10.9732 3.625 11.8795 4.11328 12.4375C4.60156 12.9955 5.39453 12.9955 5.88281 12.4375L9.375 8.45089L11.6172 11.0134C12.1055 11.5714 12.8984 11.5714 13.3867 11.0134L18.3867 5.29911L18.3828 5.29464Z" fill="#121417"/>
</svg>
