<svg width="10" height="16" viewBox="0 0 10 16" fill="none" xmlns="http://www.w3.org/2000/svg">
<path d="M2.99998 2C2.99998 0.896875 3.89686 0 4.99998 0C6.10311 0 6.99998 0.896875 6.99998 2C6.99998 3.10313 6.10311 4 4.99998 4C3.89686 4 2.99998 3.10313 2.99998 2ZM4.49998 12V15C4.49998 15.5531 4.05311 16 3.49998 16C2.94686 16 2.49998 15.5531 2.49998 15V8.99375L1.84686 10.0312C1.55311 10.5 0.934357 10.6375 0.468732 10.3438C0.00310734 10.05 -0.140643 9.43437 0.153107 8.96875L1.39998 6.99063C2.17811 5.75 3.53748 5 4.99998 5C6.46248 5 7.82186 5.75 8.59998 6.9875L9.84686 8.96875C10.1406 9.4375 9.99998 10.0531 9.53436 10.3469C9.06873 10.6406 8.44998 10.5 8.15623 10.0344L7.49998 8.99375V15C7.49998 15.5531 7.05311 16 6.49998 16C5.94686 16 5.49998 15.5531 5.49998 15V12H4.49998Z" fill="#121417"/>
</svg>
