<svg width="22" height="16" viewBox="0 0 22 16" fill="none" xmlns="http://www.w3.org/2000/svg">
<path fill-rule="evenodd" clip-rule="evenodd" d="M8 6.5C8 6.08579 8.33579 5.75 8.75 5.75H16.25C16.6642 5.75 17 6.08579 17 6.5C17 6.91421 16.6642 7.25 16.25 7.25H8.75C8.33579 7.25 8 6.91421 8 6.5ZM8.75 10.25H16.25C16.6642 10.25 17 9.91421 17 9.5C17 9.08579 16.6642 8.75 16.25 8.75H8.75C8.33579 8.75 8 9.08579 8 9.5C8 9.91421 8.33579 10.25 8.75 10.25ZM21.5 2V13.25C21.5 14.4926 20.4926 15.5 19.25 15.5H2.75C1.51138 15.5 0.505677 14.4989 0.5 13.2603V4.25C0.5 3.83579 0.835786 3.5 1.25 3.5C1.66421 3.5 2 3.83579 2 4.25V13.25C2 13.6642 2.33579 14 2.75 14C3.16421 14 3.5 13.6642 3.5 13.25V2C3.5 1.17157 4.17157 0.5 5 0.5H20C20.8284 0.5 21.5 1.17157 21.5 2ZM20 2H5V13.25C5.00037 13.5055 4.95693 13.7592 4.87156 14H19.25C19.6642 14 20 13.6642 20 13.25V2Z" fill="#61758A"/>
</svg>
