<svg width="21" height="21" viewBox="0 0 21 21" fill="none" xmlns="http://www.w3.org/2000/svg">
<path d="M2.7999 0.400024C1.47615 0.400024 0.399902 1.47627 0.399902 2.80002V17.2C0.399902 18.5238 1.47615 19.6 2.7999 19.6H5.7999V15.4C5.7999 14.0763 6.87615 13 8.1999 13H14.7999V6.79377C14.7999 6.15627 14.5487 5.54502 14.0987 5.09502L10.1012 1.10127C9.65115 0.651274 9.04365 0.400024 8.40615 0.400024H2.7999ZM12.6062 7.00002H9.0999C8.60115 7.00002 8.1999 6.59877 8.1999 6.10002V2.59377L12.6062 7.00002ZM8.1999 14.65C7.7874 14.65 7.4499 14.9875 7.4499 15.4V20.2C7.4499 20.6125 7.7874 20.95 8.1999 20.95C8.6124 20.95 8.9499 20.6125 8.9499 20.2V19.15H9.3999C10.6412 19.15 11.6499 18.1413 11.6499 16.9C11.6499 15.6588 10.6412 14.65 9.3999 14.65H8.1999ZM9.3999 17.65H8.9499V16.15H9.3999C9.8124 16.15 10.1499 16.4875 10.1499 16.9C10.1499 17.3125 9.8124 17.65 9.3999 17.65ZM12.9999 14.65C12.5874 14.65 12.2499 14.9875 12.2499 15.4V20.2C12.2499 20.6125 12.5874 20.95 12.9999 20.95H14.1999C15.2762 20.95 16.1499 20.0763 16.1499 19V16.6C16.1499 15.5238 15.2762 14.65 14.1999 14.65H12.9999ZM13.7499 19.45V16.15H14.1999C14.4474 16.15 14.6499 16.3525 14.6499 16.6V19C14.6499 19.2475 14.4474 19.45 14.1999 19.45H13.7499ZM17.0499 15.4V20.2C17.0499 20.6125 17.3874 20.95 17.7999 20.95C18.2124 20.95 18.5499 20.6125 18.5499 20.2V18.55H19.5999C20.0124 18.55 20.3499 18.2125 20.3499 17.8C20.3499 17.3875 20.0124 17.05 19.5999 17.05H18.5499V16.15H19.5999C20.0124 16.15 20.3499 15.8125 20.3499 15.4C20.3499 14.9875 20.0124 14.65 19.5999 14.65H17.7999C17.3874 14.65 17.0499 14.9875 17.0499 15.4Z" fill="#121417"/>
</svg>
