<svg width="20" height="20" viewBox="0 0 20 20" fill="none" xmlns="http://www.w3.org/2000/svg">
<path d="M19.4579 0.216946C19.8525 0.490384 20.0595 0.96304 19.9853 1.4357L17.4853 17.6857C17.4267 18.0646 17.1962 18.3966 16.8603 18.5841C16.5243 18.7716 16.122 18.7951 15.7665 18.6466L11.0946 16.7052L8.41886 19.5998C8.07121 19.9787 7.52433 20.1037 7.04386 19.9162C6.5634 19.7287 6.2509 19.2638 6.2509 18.7482V15.4826C6.2509 15.3263 6.30949 15.1779 6.41496 15.0607L12.9618 7.92007C13.1884 7.67398 13.1806 7.29507 12.9462 7.0607C12.7118 6.82632 12.3329 6.8107 12.0868 7.03335L4.14152 14.0919L0.692301 12.3654C0.278239 12.1584 0.0126139 11.7443 0.000895138 11.2834C-0.0108236 10.8224 0.231364 10.3927 0.629801 10.1623L18.1298 0.162259C18.5478 -0.0760225 19.0634 -0.052585 19.4579 0.216946Z" fill="#61758A"/>
</svg>
