<svg width="16" height="16" viewBox="0 0 16 16" fill="none" xmlns="http://www.w3.org/2000/svg">
<path d="M13.001 6.49878C13.001 7.93315 12.5354 9.25815 11.751 10.3332L15.7072 14.2925C16.0979 14.6832 16.0979 15.3175 15.7072 15.7082C15.3166 16.0988 14.6822 16.0988 14.2916 15.7082L10.3354 11.7488C9.26035 12.5332 7.93535 12.9988 6.50098 12.9988C2.91035 12.9988 0.000976562 10.0894 0.000976562 6.49878C0.000976562 2.90815 2.91035 -0.0012207 6.50098 -0.0012207C10.0916 -0.0012207 13.001 2.90815 13.001 6.49878ZM6.50098 10.9988C8.98535 10.9988 11.001 8.98315 11.001 6.49878C11.001 4.0144 8.98535 1.99878 6.50098 1.99878C4.0166 1.99878 2.00098 4.0144 2.00098 6.49878C2.00098 8.98315 4.0166 10.9988 6.50098 10.9988Z" fill="black"/>
</svg>
