<svg width="15" height="14" viewBox="0 0 15 14" fill="none" xmlns="http://www.w3.org/2000/svg">
<path d="M2.99995 0C2.44683 0 1.99995 0.446875 1.99995 1C1.99995 1.55313 2.44683 2 2.99995 2H3.58433L0.293701 5.29375C-0.0969238 5.68437 -0.0969238 6.31875 0.293701 6.70938C0.684326 7.1 1.3187 7.1 1.70933 6.70938L4.99995 3.41563V4C4.99995 4.55312 5.44683 5 5.99995 5C6.55308 5 6.99995 4.55312 6.99995 4V1C6.99995 0.446875 6.55308 0 5.99995 0H2.99995ZM12.6187 1.19063C12.6187 1.84688 13.1531 2.38125 13.8093 2.38125C14.4656 2.38125 15 1.84688 15 1.19063C15 0.534375 14.4656 0 13.8093 0C13.1531 0 12.6187 0.534375 12.6187 1.19063ZM8.74058 5.06875C8.74058 5.725 9.27495 6.25937 9.9312 6.25937C10.5875 6.25937 11.1218 5.725 11.1218 5.06875C11.1218 4.4125 10.5875 3.87813 9.9312 3.87813C9.27495 3.87813 8.74058 4.4125 8.74058 5.06875ZM13.8093 3.87813C13.1531 3.87813 12.6187 4.4125 12.6187 5.06875C12.6187 5.725 13.1531 6.25937 13.8093 6.25937C14.4656 6.25937 15 5.725 15 5.06875C15 4.4125 14.4656 3.87813 13.8093 3.87813ZM4.8812 8.93125C4.8812 9.5875 5.41558 10.1219 6.07183 10.1219C6.72808 10.1219 7.26245 9.5875 7.26245 8.93125C7.26245 8.275 6.72808 7.74063 6.07183 7.74063C5.41558 7.74063 4.8812 8.275 4.8812 8.93125ZM9.9312 7.74063C9.27495 7.74063 8.74058 8.275 8.74058 8.93125C8.74058 9.5875 9.27495 10.1219 9.9312 10.1219C10.5875 10.1219 11.1218 9.5875 11.1218 8.93125C11.1218 8.275 10.5875 7.74063 9.9312 7.74063ZM12.6218 8.93125C12.6218 9.5875 13.1562 10.1219 13.8125 10.1219C14.4687 10.1219 15.0031 9.5875 15.0031 8.93125C15.0031 8.275 14.4687 7.74063 13.8125 7.74063C13.1562 7.74063 12.6218 8.275 12.6218 8.93125ZM2.19058 11.6187C1.53433 11.6187 0.999951 12.1531 0.999951 12.8094C0.999951 13.4656 1.53433 14 2.19058 14C2.84683 14 3.3812 13.4656 3.3812 12.8094C3.3812 12.1531 2.84683 11.6187 2.19058 11.6187ZM4.8812 12.8094C4.8812 13.4656 5.41558 14 6.07183 14C6.72808 14 7.26245 13.4656 7.26245 12.8094C7.26245 12.1531 6.72808 11.6187 6.07183 11.6187C5.41558 11.6187 4.8812 12.1531 4.8812 12.8094ZM9.9312 11.6187C9.27495 11.6187 8.74058 12.1531 8.74058 12.8094C8.74058 13.4656 9.27495 14 9.9312 14C10.5875 14 11.1218 13.4656 11.1218 12.8094C11.1218 12.1531 10.5875 11.6187 9.9312 11.6187ZM12.6218 12.8094C12.6218 13.4656 13.1562 14 13.8125 14C14.4687 14 15.0031 13.4656 15.0031 12.8094C15.0031 12.1531 14.4687 11.6187 13.8125 11.6187C13.1562 11.6187 12.6218 12.1531 12.6218 12.8094Z" fill="#121417"/>
</svg>
