<svg width="6" height="18" viewBox="0 0 6 18" fill="none" xmlns="http://www.w3.org/2000/svg">
<path d="M2.9999 4.79998C1.84115 4.79998 0.899902 3.85873 0.899902 2.69998C0.899902 1.54123 1.84115 0.599976 2.9999 0.599976C4.15865 0.599976 5.0999 1.54123 5.0999 2.69998C5.0999 3.85873 4.15865 4.79998 2.9999 4.79998ZM2.9999 13.2C4.15865 13.2 5.0999 14.1412 5.0999 15.3C5.0999 16.4587 4.15865 17.4 2.9999 17.4C1.84115 17.4 0.899902 16.4587 0.899902 15.3C0.899902 14.1412 1.84115 13.2 2.9999 13.2ZM5.0999 8.99998C5.0999 10.1587 4.15865 11.1 2.9999 11.1C1.84115 11.1 0.899902 10.1587 0.899902 8.99998C0.899902 7.84123 1.84115 6.89998 2.9999 6.89998C4.15865 6.89998 5.0999 7.84123 5.0999 8.99998Z" fill="black"/>
</svg>
