<svg width="20" height="21" viewBox="0 0 20 21" fill="none" xmlns="http://www.w3.org/2000/svg">
<path d="M9 5.5C9 4.94688 9.44688 4.5 10 4.5C10.5531 4.5 11 4.94688 11 5.5C11 6.05312 10.5531 6.5 10 6.5C9.44688 6.5 9 6.05312 9 5.5ZM12.8281 6.5C12.9375 6.1875 13 5.85 13 5.5C13 3.84375 11.6562 2.5 10 2.5C8.34375 2.5 7 3.84375 7 5.5C7 5.85 7.05937 6.1875 7.17188 6.5H6.49062C5.60625 6.5 4.82812 7.07812 4.575 7.925L2.075 16.2563C2.025 16.4188 2 16.5875 2 16.7563C2 17.7188 2.78125 18.5 3.74375 18.5H16.2563C17.2188 18.5 18 17.7188 18 16.7563C18 16.5875 17.975 16.4188 17.925 16.2563L15.425 7.92812C15.1719 7.08125 14.3937 6.50313 13.5094 6.50313H12.8281V6.5Z" fill="#121417"/>
</svg>
