<svg width="22" height="16" viewBox="0 0 22 16" fill="none" xmlns="http://www.w3.org/2000/svg">
<path d="M20.8137 3.0538C20.5812 2.16505 19.8837 1.46755 19.0025 1.2313C17.4087 0.800049 11.0037 0.800049 11.0037 0.800049C11.0037 0.800049 4.5987 0.800049 3.0012 1.2313C2.11995 1.46755 1.4262 2.16505 1.18995 3.0538C0.762451 4.66255 0.762451 8.01505 0.762451 8.01505C0.762451 8.01505 0.762451 11.3675 1.18995 12.9763C1.4262 13.8613 2.11995 14.5325 3.0012 14.7688C4.5987 15.2 11.0037 15.2 11.0037 15.2C11.0037 15.2 17.4087 15.2 19.0062 14.7688C19.8874 14.5325 20.5812 13.8613 20.8174 12.9763C21.2449 11.3675 21.245 8.01505 21.245 8.01505C21.245 8.01505 21.2449 4.66255 20.8174 3.0538H20.8137ZM8.90745 11.06V4.97005L14.2587 8.01505L8.90745 11.06Z" fill="#121417"/>
</svg>
